HIERARCHY
ROOT newVegas:Hips
{
	OFFSET 0.000000 96.479958 0.000000
	CHANNELS 6 Xposition Yposition Zposition Xrotation Yrotation Zrotation
	JOINT newVegas:Pelvis
	{
		OFFSET 0.000000 0.000000 0.000000
		CHANNELS 3 Xrotation Yrotation Zrotation
		JOINT newVegas:LeftUpLeg
		{
			OFFSET 18.735201 -5.666702 -4.541200
			CHANNELS 3 Xrotation Yrotation Zrotation
			JOINT newVegas:LeftLeg
			{
				OFFSET -0.021200 -31.938179 0.493100
				CHANNELS 3 Xrotation Yrotation Zrotation
				JOINT newVegas:LeftFoot
				{
					OFFSET 0.021200 -31.938179 -4.336299
					CHANNELS 3 Xrotation Yrotation Zrotation
					JOINT newVegas:LeftToeBase
					{
						OFFSET 0.943001 -26.722000 15.023500
						CHANNELS 3 Xrotation Yrotation Zrotation
						End Site
						{
							OFFSET 0.000000 30.670183 0.000000
						}
					}
				}
				JOINT newVegas:Left_PantLeg
				{
					OFFSET 0.663870 -9.044666 -1.108900
					CHANNELS 3 Xrotation Yrotation Zrotation
					End Site
					{
						OFFSET 1.415995 20.635357 0.000000
					}
				}
			}
		}
		JOINT newVegas:RightUpLeg
		{
			OFFSET -18.735201 -5.666702 -4.541200
			CHANNELS 3 Xrotation Yrotation Zrotation
			JOINT newVegas:RightLeg
			{
				OFFSET 0.018946 -31.938133 0.493100
				CHANNELS 3 Xrotation Yrotation Zrotation
				JOINT newVegas:RightFoot
				{
					OFFSET -0.018946 -31.938126 -4.336299
					CHANNELS 3 Xrotation Yrotation Zrotation
					JOINT newVegas:RightToeBase
					{
						OFFSET -0.943001 -26.722004 15.023500
						CHANNELS 3 Xrotation Yrotation Zrotation
						End Site
						{
							OFFSET 0.000000 30.670187 0.000000
						}
					}
				}
				JOINT newVegas:Right_PantLeg
				{
					OFFSET -0.661674 -9.044716 -1.108900
					CHANNELS 3 Xrotation Yrotation Zrotation
					End Site
					{
						OFFSET -1.415958 20.635269 0.000000
					}
				}
			}
		}
	}
	JOINT newVegas:Spine
	{
		OFFSET 0.000000 10.199997 -0.299500
		CHANNELS 3 Xrotation Yrotation Zrotation
		JOINT newVegas:Spine1
		{
			OFFSET 0.000000 11.900002 -1.516600
			CHANNELS 3 Xrotation Yrotation Zrotation
			JOINT newVegas:Spine2
			{
				OFFSET 0.000000 13.600006 -2.842500
				CHANNELS 3 Xrotation Yrotation Zrotation
				JOINT newVegas:Neck
				{
					OFFSET 0.000000 9.624100 -2.890100
					CHANNELS 3 Xrotation Yrotation Zrotation
					JOINT newVegas:Head
					{
						OFFSET 0.000000 14.068802 -1.351900
						CHANNELS 3 Xrotation Yrotation Zrotation
						JOINT newVegas:Hair_Back
						{
							OFFSET 0.000000 3.231903 -17.524799
							CHANNELS 3 Xrotation Yrotation Zrotation
							End Site
							{
								OFFSET 0.000000 19.849884 0.000000
							}
						}
						JOINT newVegas:Hair_Front
						{
							OFFSET 0.000000 31.260406 4.573800
							CHANNELS 3 Xrotation Yrotation Zrotation
							JOINT newVegas:Hair_Front1
							{
								OFFSET 0.000000 2.284103 11.993300
								CHANNELS 3 Xrotation Yrotation Zrotation
								JOINT newVegas:Hair_Front2
								{
									OFFSET 0.000000 2.284103 11.993300
									CHANNELS 3 Xrotation Yrotation Zrotation
									End Site
									{
										OFFSET 0.000000 12.208862 0.000000
									}
								}
							}
						}
						JOINT newVegas:Jowel
						{
							OFFSET 0.000000 -7.458206 6.864100
							CHANNELS 3 Xrotation Yrotation Zrotation
							End Site
							{
								OFFSET 0.000000 19.849884 0.000000
							}
						}
					}
				}
				JOINT newVegas:LeftShoulder
				{
					OFFSET 15.263000 10.923401 -0.547700
					CHANNELS 3 Xrotation Yrotation Zrotation
					JOINT newVegas:LeftArm
					{
						OFFSET 25.438599 -2.830597 -13.032500
						CHANNELS 3 Xrotation Yrotation Zrotation
						JOINT newVegas:LeftForeArm
						{
							OFFSET 29.960503 0.000000 0.000000
							CHANNELS 3 Xrotation Yrotation Zrotation
							JOINT newVegas:LeftHand
							{
								OFFSET 27.849251 0.000000 0.000000
								CHANNELS 3 Xrotation Yrotation Zrotation
								JOINT newVegas:LeftHandThumb1
								{
									OFFSET 4.487587 -3.305161 6.305391
									CHANNELS 3 Xrotation Yrotation Zrotation
									JOINT newVegas:LeftHandThumb2
									{
										OFFSET 5.480453 -3.164139 3.164143
										CHANNELS 3 Xrotation Yrotation Zrotation
										JOINT newVegas:LeftHandThumb3
										{
											OFFSET 5.159721 -2.978973 2.978967
											CHANNELS 3 Xrotation Yrotation Zrotation
											End Site
											{
												OFFSET 2.494507 5.926697 1.738678
											}
										}
									}
								}
								JOINT newVegas:LeftHandIndex1
								{
									OFFSET 18.578728 -0.527832 5.208049
									CHANNELS 3 Xrotation Yrotation Zrotation
									JOINT newVegas:LeftHandIndex2
									{
										OFFSET 3.192009 0.000000 0.000000
										CHANNELS 3 Xrotation Yrotation Zrotation
										JOINT newVegas:LeftHandIndex3
										{
											OFFSET 3.835129 0.000000 0.000000
											CHANNELS 3 Xrotation Yrotation Zrotation
											End Site
											{
												OFFSET -0.034599 3.816971 0.371180
											}
										}
									}
								}
								JOINT newVegas:LeftHandMiddle1
								{
									OFFSET 18.476105 0.000000 0.000000
									CHANNELS 3 Xrotation Yrotation Zrotation
									JOINT newVegas:LeftHandMiddle2
									{
										OFFSET 3.324875 0.000000 0.000000
										CHANNELS 3 Xrotation Yrotation Zrotation
										JOINT newVegas:LeftHandMiddle3
										{
											OFFSET 4.596550 0.000000 0.000000
											CHANNELS 3 Xrotation Yrotation Zrotation
											End Site
											{
												OFFSET 0.057701 4.578827 0.399218
											}
										}
									}
								}
								JOINT newVegas:LeftHandRing1
								{
									OFFSET 17.732719 0.121887 -4.201567
									CHANNELS 3 Xrotation Yrotation Zrotation
									JOINT newVegas:LeftHandRing2
									{
										OFFSET 2.733170 0.000000 0.000000
										CHANNELS 3 Xrotation Yrotation Zrotation
										JOINT newVegas:LeftHandRing3
										{
											OFFSET 3.178268 0.000000 0.000000
											CHANNELS 3 Xrotation Yrotation Zrotation
											End Site
											{
												OFFSET 0.119102 3.170624 0.185394
											}
										}
									}
								}
								JOINT newVegas:LeftHandPinky1
								{
									OFFSET 15.989624 -0.606689 -7.535461
									CHANNELS 3 Xrotation Yrotation Zrotation
									JOINT newVegas:LeftHandPinky2
									{
										OFFSET 2.538986 0.000000 0.000000
										CHANNELS 3 Xrotation Yrotation Zrotation
										JOINT newVegas:LeftHandPinky3
										{
											OFFSET 2.593102 0.000000 0.000000
											CHANNELS 3 Xrotation Yrotation Zrotation
											End Site
											{
												OFFSET -0.150902 2.584198 0.152708
											}
										}
									}
								}
							}
							JOINT newVegas:Left_Sleeve
							{
								OFFSET 0.267448 -0.649796 0.577675
								CHANNELS 3 Xrotation Yrotation Zrotation
								End Site
								{
									OFFSET 0.000000 15.991241 0.000000
								}
							}
							JOINT newVegas:Left_CapeC
							{
								OFFSET 15.715958 -8.608795 -6.935905
								CHANNELS 3 Xrotation Yrotation Zrotation
								JOINT newVegas:Left_CapeC1
								{
									OFFSET 0.000000 -8.688499 0.000000
									CHANNELS 3 Xrotation Yrotation Zrotation
									End Site
									{
										OFFSET 0.000000 8.688499 0.000000
									}
								}
							}
						}
						JOINT newVegas:Left_CapeB
						{
							OFFSET 26.118385 -8.608795 -7.079235
							CHANNELS 3 Xrotation Yrotation Zrotation
							JOINT newVegas:Left_CapeB1
							{
								OFFSET 0.000000 -8.688499 0.000000
								CHANNELS 3 Xrotation Yrotation Zrotation
								End Site
								{
									OFFSET 0.000000 8.688499 0.000000
								}
							}
						}
						JOINT newVegas:Left_CapeA
						{
							OFFSET 5.115639 -8.608795 -10.395809
							CHANNELS 3 Xrotation Yrotation Zrotation
							JOINT newVegas:Left_CapeA1
							{
								OFFSET 0.000000 -8.688499 0.000000
								CHANNELS 3 Xrotation Yrotation Zrotation
								End Site
								{
									OFFSET 0.000000 8.688499 0.000000
								}
							}
						}
					}
				}
				JOINT newVegas:RightShoulder
				{
					OFFSET -15.263000 10.923401 -0.547700
					CHANNELS 3 Xrotation Yrotation Zrotation
					JOINT newVegas:RightArm
					{
						OFFSET -25.438599 -2.830597 -13.032500
						CHANNELS 3 Xrotation Yrotation Zrotation
						JOINT newVegas:RightForeArm
						{
							OFFSET -29.960503 0.000000 0.000000
							CHANNELS 3 Xrotation Yrotation Zrotation
							JOINT newVegas:RightHand
							{
								OFFSET -27.849251 0.000000 0.000000
								CHANNELS 3 Xrotation Yrotation Zrotation
								JOINT newVegas:RightHandThumb1
								{
									OFFSET -4.487587 -3.305161 6.305391
									CHANNELS 3 Xrotation Yrotation Zrotation
									JOINT newVegas:RightHandThumb2
									{
										OFFSET -5.480453 -3.164139 3.164143
										CHANNELS 3 Xrotation Yrotation Zrotation
										JOINT newVegas:RightHandThumb3
										{
											OFFSET -5.159721 -2.978973 2.978967
											CHANNELS 3 Xrotation Yrotation Zrotation
											End Site
											{
												OFFSET -2.494507 5.926697 1.738678
											}
										}
									}
								}
								JOINT newVegas:RightHandIndex1
								{
									OFFSET -18.578728 -0.527832 5.208049
									CHANNELS 3 Xrotation Yrotation Zrotation
									JOINT newVegas:RightHandIndex2
									{
										OFFSET -3.192009 0.000000 0.000000
										CHANNELS 3 Xrotation Yrotation Zrotation
										JOINT newVegas:RightHandIndex3
										{
											OFFSET -3.835129 0.000000 0.000000
											CHANNELS 3 Xrotation Yrotation Zrotation
											End Site
											{
												OFFSET 0.034599 3.816971 0.371180
											}
										}
									}
								}
								JOINT newVegas:RightHandMiddle1
								{
									OFFSET -18.476105 0.000000 0.000000
									CHANNELS 3 Xrotation Yrotation Zrotation
									JOINT newVegas:RightHandMiddle2
									{
										OFFSET -3.324875 0.000000 0.000000
										CHANNELS 3 Xrotation Yrotation Zrotation
										JOINT newVegas:RightHandMiddle3
										{
											OFFSET -4.596550 0.000000 0.000000
											CHANNELS 3 Xrotation Yrotation Zrotation
											End Site
											{
												OFFSET -0.057701 4.578827 0.399218
											}
										}
									}
								}
								JOINT newVegas:RightHandRing1
								{
									OFFSET -17.732719 0.121887 -4.201567
									CHANNELS 3 Xrotation Yrotation Zrotation
									JOINT newVegas:RightHandRing2
									{
										OFFSET -2.733170 0.000000 0.000000
										CHANNELS 3 Xrotation Yrotation Zrotation
										JOINT newVegas:RightHandRing3
										{
											OFFSET -3.178268 0.000000 0.000000
											CHANNELS 3 Xrotation Yrotation Zrotation
											End Site
											{
												OFFSET -0.119102 3.170624 0.185394
											}
										}
									}
								}
								JOINT newVegas:RightHandPinky1
								{
									OFFSET -15.989624 -0.606689 -7.535461
									CHANNELS 3 Xrotation Yrotation Zrotation
									JOINT newVegas:RightHandPinky2
									{
										OFFSET -2.538986 0.000000 0.000000
										CHANNELS 3 Xrotation Yrotation Zrotation
										JOINT newVegas:RightHandPinky3
										{
											OFFSET -2.593102 0.000000 0.000000
											CHANNELS 3 Xrotation Yrotation Zrotation
											End Site
											{
												OFFSET 0.150902 2.584198 0.152708
											}
										}
									}
								}
							}
							JOINT newVegas:Right_CapeC
							{
								OFFSET -15.715958 -8.608795 -6.935905
								CHANNELS 3 Xrotation Yrotation Zrotation
								JOINT newVegas:Right_CapeC1
								{
									OFFSET 0.000000 -8.688499 0.000000
									CHANNELS 3 Xrotation Yrotation Zrotation
									End Site
									{
										OFFSET 0.000000 8.688499 0.000000
									}
								}
							}
							JOINT newVegas:Right_Sleeve
							{
								OFFSET -0.267448 -0.649994 0.577675
								CHANNELS 3 Xrotation Yrotation Zrotation
								End Site
								{
									OFFSET 0.000000 15.991302 0.000000
								}
							}
						}
						JOINT newVegas:Right_CapeA
						{
							OFFSET -5.115540 -8.608795 -10.395824
							CHANNELS 3 Xrotation Yrotation Zrotation
							JOINT newVegas:Right_CapeA1
							{
								OFFSET 0.000000 -8.688499 0.000000
								CHANNELS 3 Xrotation Yrotation Zrotation
								End Site
								{
									OFFSET 0.000000 8.688499 0.000000
								}
							}
						}
						JOINT newVegas:Right_CapeB
						{
							OFFSET -26.118187 -8.608795 -7.079266
							CHANNELS 3 Xrotation Yrotation Zrotation
							JOINT newVegas:Right_CapeB1
							{
								OFFSET 0.000000 -8.688499 0.000000
								CHANNELS 3 Xrotation Yrotation Zrotation
								End Site
								{
									OFFSET 0.000000 8.688499 0.000000
								}
							}
						}
					}
				}
				JOINT newVegas:Left_Collar
				{
					OFFSET 18.625099 8.655502 8.828100
					CHANNELS 3 Xrotation Yrotation Zrotation
					JOINT newVegas:Left_Collar1
					{
						OFFSET 14.783401 10.540405 -1.259500
						CHANNELS 3 Xrotation Yrotation Zrotation
						End Site
						{
							OFFSET 0.000000 18.199875 0.000000
						}
					}
				}
				JOINT newVegas:Collar_Back
				{
					OFFSET 0.000000 15.630707 -20.132601
					CHANNELS 3 Xrotation Yrotation Zrotation
					End Site
					{
						OFFSET 0.000000 22.523010 0.000000
					}
				}
				JOINT newVegas:Left_Peck
				{
					OFFSET 17.239599 -5.132599 25.482599
					CHANNELS 3 Xrotation Yrotation Zrotation
					End Site
					{
						OFFSET 0.000000 22.523010 0.000000
					}
				}
				JOINT newVegas:Right_Peck
				{
					OFFSET -17.239599 -5.132202 25.482599
					CHANNELS 3 Xrotation Yrotation Zrotation
					End Site
					{
						OFFSET 0.000000 22.523010 0.000000
					}
				}
				JOINT newVegas:Right_Collar
				{
					OFFSET -18.625099 8.655792 8.828100
					CHANNELS 3 Xrotation Yrotation Zrotation
					JOINT newVegas:Right_Collar1
					{
						OFFSET -14.783401 10.539993 -1.259500
						CHANNELS 3 Xrotation Yrotation Zrotation
						End Site
						{
							OFFSET 0.000000 18.199631 0.000000
						}
					}
				}
			}
		}
		JOINT newVegas:Belly
		{
			OFFSET 0.000000 -6.540398 9.014299
			CHANNELS 3 Xrotation Yrotation Zrotation
			End Site
			{
				OFFSET 0.000000 11.566666 0.000000
			}
		}
	}
	JOINT newVegas:ElvisFacialAnim_Joint
	{
		OFFSET 1.000000 -95.330101 -8.825800
		CHANNELS 3 Xrotation Yrotation Zrotation
		End Site
		{
			OFFSET 0.000000 35.315800 0.000000
		}
	}
}
MOTION
Frames: 4
Frame Time: 0.016667
-0.195789 93.105209 -0.826238 1.019604 3.204236 -0.409585 -0.000000 0.000000 0.000000 -16.025266 8.752954 7.205713 28.468097 -1.925489 2.222940 -13.701897 1.234292 -6.063611 -0.000000 0.000000 -0.000000 0.000000 0.000000 0.000001 -6.793130 -6.212989 -5.618659 24.645870 -8.649902 8.399038 -17.682211 -16.551321 0.049012 0.000000 0.000000 0.000000 -0.000001 -0.000001 0.000000 19.037144 -0.940673 -1.326599 1.223064 -0.119062 0.413203 1.222982 -0.102590 0.414475 6.999285 0.331130 0.593979 6.999293 0.331131 0.593980 -0.000002 0.000000 0.000000 6.999348 0.331129 0.593980 6.999244 0.331129 0.593980 0.000001 0.000000 0.000000 -0.000002 0.000000 0.000000 11.672667 -37.520623 -0.316564 11.271317 19.967073 -51.862931 -0.000013 -34.690794 0.000001 2.574877 -0.956514 2.461485 -1.708906 11.916057 7.382941 4.613901 16.205068 1.361363 0.000002 -0.000002 -0.000003 0.562432 2.730254 -23.276004 0.897608 3.404367 -29.533560 -0.000000 0.000002 -0.000001 0.723100 3.076865 -26.493833 0.834070 3.289886 -28.445289 -0.000004 0.000001 -0.000002 0.759386 3.148821 -27.218857 1.519217 4.319065 -38.743025 0.000002 -0.000002 -0.000001 2.755436 6.847016 -28.124380 1.536454 0.254064 -39.161088 -0.000001 0.000000 -0.000000 -0.000000 -0.000001 -0.000001 -0.000000 -0.000001 -0.000001 -0.000001 -0.000000 -0.000001 0.000001 0.000002 -0.000000 0.000001 0.000001 -0.000002 0.000001 0.000002 -0.000000 -0.000001 0.000001 -0.000001 0.491475 -2.548974 6.180815 3.745291 20.212616 34.029454 -0.000003 9.536095 -0.000004 23.378771 19.150916 -10.871790 -1.994353 -12.184637 -7.943392 5.444737 -17.292017 -0.860468 0.000001 -0.000002 -0.000001 0.461137 -2.494403 20.944386 1.026111 -3.640547 31.472224 -0.000001 -0.000001 -0.000001 0.535728 -2.680966 22.596330 1.057787 -3.691690 31.967635 -0.000001 -0.000000 0.000000 0.434003 -2.422383 20.311910 1.427582 -4.225565 37.320051 -0.000002 0.000001 -0.000001 0.161442 -1.492519 12.345140 1.468708 -4.278855 37.874994 0.000003 -0.000000 -0.000000 -0.000002 -0.000002 -0.000000 -0.000002 -0.000001 0.000001 -0.000002 -0.000003 -0.000003 0.000003 -0.000003 -0.000001 0.000003 -0.000002 -0.000001 0.000003 -0.000003 -0.000001 0.000003 -0.000002 0.000001 -0.000001 0.000000 0.000000 -0.000001 0.000000 0.000000 -0.000001 0.000000 0.000000 -0.000001 0.000000 0.000000 -0.000001 0.000000 0.000000 -0.000001 0.000000 0.000000 -0.000001 0.000000 0.000000 0.000000 -0.000000 -0.000000 -0.000000 0.000000 0.000000 
-0.182938 93.121559 -0.745438 0.970249 3.174283 -0.409276 -0.000000 0.000000 -0.000000 -15.840062 8.805848 7.216015 28.373400 -1.944274 2.199513 -13.746055 1.235023 -6.052623 -0.000000 -0.000000 0.000000 0.000000 -0.000001 0.000001 -6.599267 -6.189747 -5.586045 24.487430 -8.669396 8.351589 -17.655829 -16.562883 0.088965 0.000000 -0.000002 0.000000 0.000000 -0.000001 -0.000001 18.770791 -0.930490 -1.327938 1.229634 -0.117465 0.406143 1.229544 -0.101461 0.407324 6.987679 0.196986 0.600403 6.987698 0.196986 0.600403 0.000001 -0.000000 0.000000 6.987705 0.196987 0.600403 6.987703 0.196983 0.600404 0.000002 0.000000 -0.000000 0.000001 -0.000000 0.000000 11.432076 -37.413406 -0.403143 11.910115 20.221625 -52.024537 0.000007 -34.586985 -0.000004 1.537128 -1.822064 2.928790 -1.708915 11.916061 7.382946 4.613899 16.205069 1.361366 0.000002 -0.000003 -0.000006 0.543294 2.685403 -22.870936 0.876737 3.367322 -29.180228 0.000000 -0.000001 0.000002 0.704648 3.039378 -26.123565 0.803722 3.233322 -27.911949 -0.000002 -0.000002 0.000002 0.742643 3.115660 -26.858186 1.478275 4.267684 -38.196194 0.000000 -0.000000 -0.000001 2.720225 6.830902 -27.790636 1.481107 0.185190 -38.428707 0.000000 -0.000004 0.000003 -0.000001 -0.000001 0.000001 -0.000001 -0.000001 0.000001 -0.000002 -0.000000 0.000001 0.000000 -0.000001 0.000001 0.000001 -0.000002 0.000002 0.000000 -0.000001 0.000001 -0.000001 -0.000002 -0.000001 0.477895 -2.717889 6.166507 4.034782 19.963338 34.183246 0.000008 9.601059 0.000012 23.696952 18.707304 -11.098298 -1.994097 -12.184477 -7.943374 5.444934 -17.291973 -0.860841 0.000001 -0.000002 -0.000001 0.496369 -2.584488 21.739579 1.040596 -3.664086 31.699806 -0.000001 0.000000 0.000002 0.569955 -2.761711 23.317436 1.074172 -3.717758 32.221291 -0.000002 0.000001 -0.000001 0.462907 -2.499013 20.985060 1.445576 -4.249027 37.563831 -0.000003 0.000003 -0.000003 0.180806 -1.578382 13.067959 1.485672 -4.300514 38.101753 0.000001 -0.000000 -0.000001 -0.000001 -0.000001 -0.000001 -0.000002 -0.000000 0.000001 -0.000001 -0.000001 -0.000001 0.000002 0.000002 0.000002 0.000002 0.000003 0.000002 0.000002 0.000002 0.000002 0.000002 0.000003 0.000004 0.000000 -0.000000 0.000000 0.000000 -0.000000 0.000000 0.000000 -0.000000 0.000000 0.000000 -0.000000 0.000000 0.000000 -0.000000 0.000000 0.000000 -0.000000 0.000000 0.000000 -0.000000 0.000000 0.000001 -0.000000 -0.000000 -0.000000 0.000000 -0.000000 
-0.172081 93.132896 -0.674765 0.923102 3.157269 -0.397710 0.000000 0.000000 -0.000000 -15.672446 8.845167 7.208309 28.287857 -1.956107 2.183495 -13.781106 1.235794 -6.045695 0.000000 -0.000000 -0.000000 0.000000 0.000001 -0.000000 -6.441714 -6.184687 -5.581902 24.386857 -8.676114 8.322006 -17.655388 -16.564028 0.123235 0.000000 -0.000002 0.000000 0.000002 0.000000 -0.000001 18.530769 -0.904651 -1.351335 1.234593 -0.113719 0.407003 1.234487 -0.097862 0.408096 6.974370 0.078270 0.609808 6.974382 0.078270 0.609809 0.000000 0.000000 -0.000000 6.974476 0.078271 0.609808 6.974330 0.078269 0.609809 0.000002 0.000000 0.000000 0.000000 0.000000 -0.000000 11.198572 -37.286030 -0.490915 12.400881 20.323675 -52.234452 -0.000009 -34.431503 0.000002 0.428606 -2.925370 3.387620 -1.708911 11.916062 7.382943 4.613908 16.205064 1.361359 0.000002 -0.000001 -0.000004 0.526289 2.644758 -22.505180 0.860861 3.338771 -28.908673 -0.000008 -0.000003 0.000002 0.692333 3.014038 -25.875620 0.783530 3.194949 -27.551689 -0.000002 0.000000 0.000003 0.738399 3.107106 -26.747615 1.455599 4.238794 -37.890474 0.000002 0.000001 0.000001 2.724819 6.836800 -27.806689 1.456341 0.153816 -38.097480 -0.000001 0.000003 0.000001 -0.000002 0.000000 -0.000000 -0.000002 0.000000 -0.000000 -0.000003 0.000001 0.000000 0.000002 -0.000003 -0.000003 0.000002 -0.000004 -0.000002 0.000002 -0.000003 -0.000003 0.000000 -0.000004 -0.000004 0.469255 -2.842995 6.172176 4.088869 19.748918 34.584806 0.000007 9.610796 -0.000012 24.143312 18.313593 -11.303002 -1.993828 -12.184331 -7.943328 5.445085 -17.291930 -0.861181 0.000000 -0.000003 0.000001 0.529395 -2.665749 22.460829 1.057848 -3.691782 31.968530 0.000000 0.000002 -0.000001 0.608129 -2.848537 24.097544 1.098618 -3.756181 32.596309 -0.000002 0.000000 0.000000 0.504148 -2.603900 21.911611 1.480808 -4.294294 38.036535 0.000002 -0.000001 -0.000002 0.215111 -1.719462 14.260267 1.529375 -4.355504 38.680847 0.000003 0.000002 -0.000001 -0.000001 -0.000002 -0.000002 -0.000001 -0.000001 -0.000003 -0.000001 -0.000002 -0.000004 -0.000001 -0.000001 -0.000000 -0.000001 0.000000 0.000000 -0.000001 -0.000001 -0.000000 -0.000000 0.000000 0.000002 0.000003 0.000000 -0.000000 0.000003 0.000000 -0.000000 0.000003 0.000000 -0.000000 0.000003 0.000000 -0.000000 0.000003 0.000000 -0.000000 0.000003 0.000000 -0.000000 0.000003 0.000000 -0.000000 0.000002 0.000000 0.000000 0.000000 0.000000 -0.000000 
-0.162307 93.139069 -0.613806 0.876990 3.160691 -0.375236 0.000000 0.000000 -0.000000 -15.525715 8.869060 7.181243 28.215891 -1.966530 2.177825 -13.807418 1.236596 -6.042239 -0.000000 -0.000000 -0.000000 0.000001 -0.000001 -0.000000 -6.316321 -6.195922 -5.602924 24.342777 -8.670626 8.307358 -17.682470 -16.563962 0.152829 0.000000 -0.000002 -0.000000 0.000001 0.000002 -0.000001 18.317102 -0.866959 -1.392626 1.237617 -0.108355 0.414652 1.237493 -0.092382 0.415662 6.961045 -0.023306 0.618915 6.961003 -0.023308 0.618915 -0.000002 0.000000 -0.000000 6.960960 -0.023308 0.618915 6.961284 -0.023307 0.618916 0.000004 0.000000 -0.000000 -0.000002 0.000000 -0.000000 10.974286 -37.134185 -0.580667 12.738218 20.288145 -52.482494 -0.000009 -34.226795 -0.000003 -0.546868 -4.175016 3.786009 -1.708912 11.916057 7.382939 4.613904 16.205064 1.361360 0.000002 -0.000003 -0.000003 0.510254 2.605760 -22.155199 0.848792 3.316862 -28.700738 0.000003 -0.000001 -0.000001 0.684170 2.997129 -25.712942 0.771538 3.171910 -27.335831 0.000002 -0.000002 0.000000 0.743597 3.117367 -26.827861 1.447923 4.228934 -37.786266 -0.000000 -0.000000 -0.000003 2.760622 6.859903 -28.095809 1.456534 0.154041 -38.099772 -0.000001 -0.000002 0.000000 -0.000000 0.000000 -0.000001 -0.000000 0.000000 -0.000001 -0.000001 0.000000 -0.000001 0.000004 0.000000 0.000001 0.000004 -0.000001 -0.000001 0.000004 0.000000 0.000001 0.000002 -0.000001 -0.000000 0.465133 -2.927775 6.199372 3.910888 19.563084 35.227469 0.000001 9.562525 -0.000006 24.620409 18.025282 -11.454623 -1.993595 -12.184210 -7.943305 5.445231 -17.291881 -0.861488 0.000002 0.000000 0.000001 0.551007 -2.717398 22.921264 1.069496 -3.710372 32.149127 -0.000005 0.000000 -0.000000 0.641221 -2.921290 24.754938 1.120467 -3.790063 32.928236 -0.000001 0.000000 0.000001 0.549814 -2.714555 22.895778 1.520029 -4.343844 38.557538 -0.000001 0.000002 -0.000000 0.260320 -1.888419 15.696784 1.584924 -4.423813 39.406650 0.000005 -0.000002 -0.000001 -0.000002 -0.000003 0.000001 -0.000000 0.000000 0.000003 -0.000002 -0.000003 0.000001 0.000002 -0.000001 -0.000000 0.000003 0.000000 -0.000002 0.000002 -0.000001 -0.000000 0.000003 -0.000000 -0.000000 0.000002 0.000000 0.000000 0.000002 0.000000 0.000000 0.000002 0.000000 0.000000 0.000002 0.000000 0.000000 0.000002 0.000000 0.000000 0.000002 0.000000 0.000000 0.000002 0.000000 0.000000 0.000001 0.000000 -0.000000 0.000000 0.000000 -0.000000 
